<svg xmlns="http://www.w3.org/2000/svg" viewBox="-252.1 -658.6 804.2 1111.9" width="100%" height="100%"><g stroke-linecap="round" stroke-linejoin="round"><path d="M 0 0 L 300 0 L 300 -500 L 0 -500 L 0 0 Z" stroke="#e8ecf0" fill="none" vector-effect="non-scaling-stroke" stroke-width="1"></path><path d="M 45 -45 L 235 -45 A 20.000000000000004 20.000000000000004 0 0 0 255 -65 L 255 -435 A 20.000000000000004 20.000000000000004 0 0 0 235 -455 L 65 -455 A 20.000000000000004 20.000000000000004 0 0 0 45 -435 L 45 -45 L 45 -45 Z" stroke="#ff7ae0" fill="none" vector-effect="non-scaling-stroke" stroke-width="1"></path><line x1="45" y1="-455" x2="98.03300858899107" y2="-401.96699141100896" stroke="#ff7ae0" fill="none" vector-effect="non-scaling-stroke" stroke-width="1"></line><line x1="66.21320343559643" y1="-433.7867965644036" x2="119.24621202458749" y2="-380.75378797541254" stroke="#ff7ae0" fill="none" vector-effect="non-scaling-stroke" stroke-width="1"></line><circle cx="60" cy="-440" r="10" fill="#ffd23f" stroke="none"></circle><circle cx="150" cy="-440" r="10" fill="#ffd23f" stroke="none"></circle><circle cx="240" cy="-440" r="10" fill="#ffd23f" stroke="none"></circle><circle cx="58" cy="-58" r="8" fill="#ff4d4d" stroke="none"></circle><circle cx="242" cy="-58" r="8" fill="#ff4d4d" stroke="none"></circle><g><line x1="0" y1="-500" x2="0" y2="-580" stroke="#5ce08a" fill="none" vector-effect="non-scaling-stroke" stroke-width="0.6"></line><line x1="300" y1="-500" x2="300" y2="-580" stroke="#5ce08a" fill="none" vector-effect="non-scaling-stroke" stroke-width="0.6"></line><line x1="0" y1="-580" x2="300" y2="-580" stroke="#5ce08a" fill="none" vector-effect="non-scaling-stroke" stroke-width="0.9"></line><line x1="-5.390000000000001" y1="-574.61" x2="5.390000000000001" y2="-585.39" stroke="#5ce08a" fill="none" vector-effect="non-scaling-stroke" stroke-width="1.1"></line><line x1="294.61" y1="-574.61" x2="305.39" y2="-585.39" stroke="#5ce08a" fill="none" vector-effect="non-scaling-stroke" stroke-width="1.1"></line><text x="150" y="-591.76" font-size="28" fill="#5ce08a" stroke="none" text-anchor="middle" dominant-baseline="alphabetic" font-weight="400">300</text></g><g><line x1="0" y1="0" x2="-80" y2="0" stroke="#5ce08a" fill="none" vector-effect="non-scaling-stroke" stroke-width="0.6"></line><line x1="0" y1="-500" x2="-80" y2="-500" stroke="#5ce08a" fill="none" vector-effect="non-scaling-stroke" stroke-width="0.6"></line><line x1="-80" y1="0" x2="-80" y2="-500" stroke="#5ce08a" fill="none" vector-effect="non-scaling-stroke" stroke-width="0.9"></line><line x1="-85.39" y1="5.390000000000001" x2="-74.61" y2="-5.390000000000001" stroke="#5ce08a" fill="none" vector-effect="non-scaling-stroke" stroke-width="1.1"></line><line x1="-85.39" y1="-494.61" x2="-74.61" y2="-505.39" stroke="#5ce08a" fill="none" vector-effect="non-scaling-stroke" stroke-width="1.1"></line><text x="-80" y="-250" font-size="28" fill="#5ce08a" stroke="none" text-anchor="middle" dominant-baseline="central" font-weight="400" transform="rotate(-90 -80 -250)">500</text></g><text x="150" y="200" font-size="70" fill="#5cc8e0" stroke="none" text-anchor="middle" dominant-baseline="central" font-weight="700">SECTION A-A</text><line x1="-215.75" y1="259.5" x2="515.75" y2="259.5" stroke="#5cc8e0" fill="none" vector-effect="non-scaling-stroke" stroke-width="1"></line><text x="150" y="301.5" font-size="28" fill="#e8ecf0" stroke="none" text-anchor="middle" dominant-baseline="central" font-weight="400">SCALE   1 : 10</text><text x="150" y="360.3" font-size="28" fill="#e8ecf0" stroke="none" text-anchor="middle" dominant-baseline="central" font-weight="400">S1   AT   SUPPORT   300   x   500   TOP</text><text x="150" y="398.1" font-size="28" fill="#e8ecf0" stroke="none" text-anchor="middle" dominant-baseline="central" font-weight="400">3-DB20   BOT   2-DB16   STIRRUP   RB10@100/200</text></g></svg>